<svg version="1.1" xmlns="http://www.w3.org/2000/svg" xmlns:xlink="http://www.w3.org/1999/xlink" width="652.2353515625" height="636"><defs/><g><text fill="#eeeeee" stroke="none" font-family="Arial" font-size="24px" font-style="normal" font-weight="normal" text-decoration="none" x="0" y="0">UNREGISTERED</text><text fill="#eeeeee" stroke="none" font-family="Arial" font-size="24px" font-style="normal" font-weight="normal" text-decoration="none" x="0" y="30">UNREGISTERED</text><text fill="#eeeeee" stroke="none" font-family="Arial" font-size="24px" font-style="normal" font-weight="normal" text-decoration="none" x="0" y="60">UNREGISTERED</text><text fill="#eeeeee" stroke="none" font-family="Arial" font-size="24px" font-style="normal" font-weight="normal" text-decoration="none" x="0" y="90">UNREGISTERED</text><text fill="#eeeeee" stroke="none" font-family="Arial" font-size="24px" font-style="normal" font-weight="normal" text-decoration="none" x="0" y="120">UNREGISTERED</text><text fill="#eeeeee" stroke="none" font-family="Arial" font-size="24px" font-style="normal" font-weight="normal" text-decoration="none" x="0" y="150">UNREGISTERED</text><text fill="#eeeeee" stroke="none" font-family="Arial" font-size="24px" font-style="normal" font-weight="normal" text-decoration="none" x="0" y="180">UNREGISTERED</text><text fill="#eeeeee" stroke="none" font-family="Arial" font-size="24px" font-style="normal" font-weight="normal" text-decoration="none" x="0" y="210">UNREGISTERED</text><text fill="#eeeeee" stroke="none" font-family="Arial" font-size="24px" font-style="normal" font-weight="normal" text-decoration="none" x="0" y="240">UNREGISTERED</text><text fill="#eeeeee" stroke="none" font-family="Arial" font-size="24px" font-style="normal" font-weight="normal" text-decoration="none" x="0" y="270">UNREGISTERED</text><text fill="#eeeeee" stroke="none" font-family="Arial" font-size="24px" font-style="normal" font-weight="normal" text-decoration="none" x="0" y="300">UNREGISTERED</text><text fill="#eeeeee" stroke="none" font-family="Arial" font-size="24px" font-style="normal" font-weight="normal" text-decoration="none" x="0" y="330">UNREGISTERED</text><text fill="#eeeeee" stroke="none" font-family="Arial" font-size="24px" font-style="normal" font-weight="normal" text-decoration="none" x="0" y="360">UNREGISTERED</text><text fill="#eeeeee" stroke="none" font-family="Arial" font-size="24px" font-style="normal" font-weight="normal" text-decoration="none" x="0" y="390">UNREGISTERED</text><text fill="#eeeeee" stroke="none" font-family="Arial" font-size="24px" font-style="normal" font-weight="normal" text-decoration="none" x="0" y="420">UNREGISTERED</text><text fill="#eeeeee" stroke="none" font-family="Arial" font-size="24px" font-style="normal" font-weight="normal" text-decoration="none" x="0" y="450">UNREGISTERED</text><text fill="#eeeeee" stroke="none" font-family="Arial" font-size="24px" font-style="normal" font-weight="normal" text-decoration="none" x="0" y="480">UNREGISTERED</text><text fill="#eeeeee" stroke="none" font-family="Arial" font-size="24px" font-style="normal" font-weight="normal" text-decoration="none" x="0" y="510">UNREGISTERED</text><text fill="#eeeeee" stroke="none" font-family="Arial" font-size="24px" font-style="normal" font-weight="normal" text-decoration="none" x="0" y="540">UNREGISTERED</text><text fill="#eeeeee" stroke="none" font-family="Arial" font-size="24px" font-style="normal" font-weight="normal" text-decoration="none" x="0" y="570">UNREGISTERED</text><text fill="#eeeeee" stroke="none" font-family="Arial" font-size="24px" font-style="normal" font-weight="normal" text-decoration="none" x="0" y="600">UNREGISTERED</text><text fill="#eeeeee" stroke="none" font-family="Arial" font-size="24px" font-style="normal" font-weight="normal" text-decoration="none" x="0" y="630">UNREGISTERED</text><text fill="#eeeeee" stroke="none" font-family="Arial" font-size="24px" font-style="normal" font-weight="normal" text-decoration="none" x="200" y="0">UNREGISTERED</text><text fill="#eeeeee" stroke="none" font-family="Arial" font-size="24px" font-style="normal" font-weight="normal" text-decoration="none" x="200" y="30">UNREGISTERED</text><text fill="#eeeeee" stroke="none" font-family="Arial" font-size="24px" font-style="normal" font-weight="normal" text-decoration="none" x="200" y="60">UNREGISTERED</text><text fill="#eeeeee" stroke="none" font-family="Arial" font-size="24px" font-style="normal" font-weight="normal" text-decoration="none" x="200" y="90">UNREGISTERED</text><text fill="#eeeeee" stroke="none" font-family="Arial" font-size="24px" font-style="normal" font-weight="normal" text-decoration="none" x="200" y="120">UNREGISTERED</text><text fill="#eeeeee" stroke="none" font-family="Arial" font-size="24px" font-style="normal" font-weight="normal" text-decoration="none" x="200" y="150">UNREGISTERED</text><text fill="#eeeeee" stroke="none" font-family="Arial" font-size="24px" font-style="normal" font-weight="normal" text-decoration="none" x="200" y="180">UNREGISTERED</text><text fill="#eeeeee" stroke="none" font-family="Arial" font-size="24px" font-style="normal" font-weight="normal" text-decoration="none" x="200" y="210">UNREGISTERED</text><text fill="#eeeeee" stroke="none" font-family="Arial" font-size="24px" font-style="normal" font-weight="normal" text-decoration="none" x="200" y="240">UNREGISTERED</text><text fill="#eeeeee" stroke="none" font-family="Arial" font-size="24px" font-style="normal" font-weight="normal" text-decoration="none" x="200" y="270">UNREGISTERED</text><text fill="#eeeeee" stroke="none" font-family="Arial" font-size="24px" font-style="normal" font-weight="normal" text-decoration="none" x="200" y="300">UNREGISTERED</text><text fill="#eeeeee" stroke="none" font-family="Arial" font-size="24px" font-style="normal" font-weight="normal" text-decoration="none" x="200" y="330">UNREGISTERED</text><text fill="#eeeeee" stroke="none" font-family="Arial" font-size="24px" font-style="normal" font-weight="normal" text-decoration="none" x="200" y="360">UNREGISTERED</text><text fill="#eeeeee" stroke="none" font-family="Arial" font-size="24px" font-style="normal" font-weight="normal" text-decoration="none" x="200" y="390">UNREGISTERED</text><text fill="#eeeeee" stroke="none" font-family="Arial" font-size="24px" font-style="normal" font-weight="normal" text-decoration="none" x="200" y="420">UNREGISTERED</text><text fill="#eeeeee" stroke="none" font-family="Arial" font-size="24px" font-style="normal" font-weight="normal" text-decoration="none" x="200" y="450">UNREGISTERED</text><text fill="#eeeeee" stroke="none" font-family="Arial" font-size="24px" font-style="normal" font-weight="normal" text-decoration="none" x="200" y="480">UNREGISTERED</text><text fill="#eeeeee" stroke="none" font-family="Arial" font-size="24px" font-style="normal" font-weight="normal" text-decoration="none" x="200" y="510">UNREGISTERED</text><text fill="#eeeeee" stroke="none" font-family="Arial" font-size="24px" font-style="normal" font-weight="normal" text-decoration="none" x="200" y="540">UNREGISTERED</text><text fill="#eeeeee" stroke="none" font-family="Arial" font-size="24px" font-style="normal" font-weight="normal" text-decoration="none" x="200" y="570">UNREGISTERED</text><text fill="#eeeeee" stroke="none" font-family="Arial" font-size="24px" font-style="normal" font-weight="normal" text-decoration="none" x="200" y="600">UNREGISTERED</text><text fill="#eeeeee" stroke="none" font-family="Arial" font-size="24px" font-style="normal" font-weight="normal" text-decoration="none" x="200" y="630">UNREGISTERED</text><text fill="#eeeeee" stroke="none" font-family="Arial" font-size="24px" font-style="normal" font-weight="normal" text-decoration="none" x="400" y="0">UNREGISTERED</text><text fill="#eeeeee" stroke="none" font-family="Arial" font-size="24px" font-style="normal" font-weight="normal" text-decoration="none" x="400" y="30">UNREGISTERED</text><text fill="#eeeeee" stroke="none" font-family="Arial" font-size="24px" font-style="normal" font-weight="normal" text-decoration="none" x="400" y="60">UNREGISTERED</text><text fill="#eeeeee" stroke="none" font-family="Arial" font-size="24px" font-style="normal" font-weight="normal" text-decoration="none" x="400" y="90">UNREGISTERED</text><text fill="#eeeeee" stroke="none" font-family="Arial" font-size="24px" font-style="normal" font-weight="normal" text-decoration="none" x="400" y="120">UNREGISTERED</text><text fill="#eeeeee" stroke="none" font-family="Arial" font-size="24px" font-style="normal" font-weight="normal" text-decoration="none" x="400" y="150">UNREGISTERED</text><text fill="#eeeeee" stroke="none" font-family="Arial" font-size="24px" font-style="normal" font-weight="normal" text-decoration="none" x="400" y="180">UNREGISTERED</text><text fill="#eeeeee" stroke="none" font-family="Arial" font-size="24px" font-style="normal" font-weight="normal" text-decoration="none" x="400" y="210">UNREGISTERED</text><text fill="#eeeeee" stroke="none" font-family="Arial" font-size="24px" font-style="normal" font-weight="normal" text-decoration="none" x="400" y="240">UNREGISTERED</text><text fill="#eeeeee" stroke="none" font-family="Arial" font-size="24px" font-style="normal" font-weight="normal" text-decoration="none" x="400" y="270">UNREGISTERED</text><text fill="#eeeeee" stroke="none" font-family="Arial" font-size="24px" font-style="normal" font-weight="normal" text-decoration="none" x="400" y="300">UNREGISTERED</text><text fill="#eeeeee" stroke="none" font-family="Arial" font-size="24px" font-style="normal" font-weight="normal" text-decoration="none" x="400" y="330">UNREGISTERED</text><text fill="#eeeeee" stroke="none" font-family="Arial" font-size="24px" font-style="normal" font-weight="normal" text-decoration="none" x="400" y="360">UNREGISTERED</text><text fill="#eeeeee" stroke="none" font-family="Arial" font-size="24px" font-style="normal" font-weight="normal" text-decoration="none" x="400" y="390">UNREGISTERED</text><text fill="#eeeeee" stroke="none" font-family="Arial" font-size="24px" font-style="normal" font-weight="normal" text-decoration="none" x="400" y="420">UNREGISTERED</text><text fill="#eeeeee" stroke="none" font-family="Arial" font-size="24px" font-style="normal" font-weight="normal" text-decoration="none" x="400" y="450">UNREGISTERED</text><text fill="#eeeeee" stroke="none" font-family="Arial" font-size="24px" font-style="normal" font-weight="normal" text-decoration="none" x="400" y="480">UNREGISTERED</text><text fill="#eeeeee" stroke="none" font-family="Arial" font-size="24px" font-style="normal" font-weight="normal" text-decoration="none" x="400" y="510">UNREGISTERED</text><text fill="#eeeeee" stroke="none" font-family="Arial" font-size="24px" font-style="normal" font-weight="normal" text-decoration="none" x="400" y="540">UNREGISTERED</text><text fill="#eeeeee" stroke="none" font-family="Arial" font-size="24px" font-style="normal" font-weight="normal" text-decoration="none" x="400" y="570">UNREGISTERED</text><text fill="#eeeeee" stroke="none" font-family="Arial" font-size="24px" font-style="normal" font-weight="normal" text-decoration="none" x="400" y="600">UNREGISTERED</text><text fill="#eeeeee" stroke="none" font-family="Arial" font-size="24px" font-style="normal" font-weight="normal" text-decoration="none" x="400" y="630">UNREGISTERED</text><text fill="#eeeeee" stroke="none" font-family="Arial" font-size="24px" font-style="normal" font-weight="normal" text-decoration="none" x="600" y="0">UNREGISTERED</text><text fill="#eeeeee" stroke="none" font-family="Arial" font-size="24px" font-style="normal" font-weight="normal" text-decoration="none" x="600" y="30">UNREGISTERED</text><text fill="#eeeeee" stroke="none" font-family="Arial" font-size="24px" font-style="normal" font-weight="normal" text-decoration="none" x="600" y="60">UNREGISTERED</text><text fill="#eeeeee" stroke="none" font-family="Arial" font-size="24px" font-style="normal" font-weight="normal" text-decoration="none" x="600" y="90">UNREGISTERED</text><text fill="#eeeeee" stroke="none" font-family="Arial" font-size="24px" font-style="normal" font-weight="normal" text-decoration="none" x="600" y="120">UNREGISTERED</text><text fill="#eeeeee" stroke="none" font-family="Arial" font-size="24px" font-style="normal" font-weight="normal" text-decoration="none" x="600" y="150">UNREGISTERED</text><text fill="#eeeeee" stroke="none" font-family="Arial" font-size="24px" font-style="normal" font-weight="normal" text-decoration="none" x="600" y="180">UNREGISTERED</text><text fill="#eeeeee" stroke="none" font-family="Arial" font-size="24px" font-style="normal" font-weight="normal" text-decoration="none" x="600" y="210">UNREGISTERED</text><text fill="#eeeeee" stroke="none" font-family="Arial" font-size="24px" font-style="normal" font-weight="normal" text-decoration="none" x="600" y="240">UNREGISTERED</text><text fill="#eeeeee" stroke="none" font-family="Arial" font-size="24px" font-style="normal" font-weight="normal" text-decoration="none" x="600" y="270">UNREGISTERED</text><text fill="#eeeeee" stroke="none" font-family="Arial" font-size="24px" font-style="normal" font-weight="normal" text-decoration="none" x="600" y="300">UNREGISTERED</text><text fill="#eeeeee" stroke="none" font-family="Arial" font-size="24px" font-style="normal" font-weight="normal" text-decoration="none" x="600" y="330">UNREGISTERED</text><text fill="#eeeeee" stroke="none" font-family="Arial" font-size="24px" font-style="normal" font-weight="normal" text-decoration="none" x="600" y="360">UNREGISTERED</text><text fill="#eeeeee" stroke="none" font-family="Arial" font-size="24px" font-style="normal" font-weight="normal" text-decoration="none" x="600" y="390">UNREGISTERED</text><text fill="#eeeeee" stroke="none" font-family="Arial" font-size="24px" font-style="normal" font-weight="normal" text-decoration="none" x="600" y="420">UNREGISTERED</text><text fill="#eeeeee" stroke="none" font-family="Arial" font-size="24px" font-style="normal" font-weight="normal" text-decoration="none" x="600" y="450">UNREGISTERED</text><text fill="#eeeeee" stroke="none" font-family="Arial" font-size="24px" font-style="normal" font-weight="normal" text-decoration="none" x="600" y="480">UNREGISTERED</text><text fill="#eeeeee" stroke="none" font-family="Arial" font-size="24px" font-style="normal" font-weight="normal" text-decoration="none" x="600" y="510">UNREGISTERED</text><text fill="#eeeeee" stroke="none" font-family="Arial" font-size="24px" font-style="normal" font-weight="normal" text-decoration="none" x="600" y="540">UNREGISTERED</text><text fill="#eeeeee" stroke="none" font-family="Arial" font-size="24px" font-style="normal" font-weight="normal" text-decoration="none" x="600" y="570">UNREGISTERED</text><text fill="#eeeeee" stroke="none" font-family="Arial" font-size="24px" font-style="normal" font-weight="normal" text-decoration="none" x="600" y="600">UNREGISTERED</text><text fill="#eeeeee" stroke="none" font-family="Arial" font-size="24px" font-style="normal" font-weight="normal" text-decoration="none" x="600" y="630">UNREGISTERED</text><g transform="translate(2,-22) scale(1,1)"><rect fill="#C0C0C0" stroke="none" x="255" y="39" width="83.80078125" height="102" opacity="0.2"/></g><g transform="translate(2,-22) scale(1,1)"><rect fill="#ffffff" stroke="none" x="248" y="32" width="83.80078125" height="102"/></g><g transform="translate(2,-22) scale(1,1)"><path fill="none" stroke="#000000" d="M 248 32 L 331.80078125 32 L 331.80078125 134 L 248 134 L 248 32 Z Z" stroke-miterlimit="10"/></g><g transform="translate(2,-22) scale(1,1)"><path fill="none" stroke="#000000" d="M 248 57 L 331.80078125 57" stroke-miterlimit="10"/></g><g transform="translate(2,-22) scale(1,1)"><path fill="none" stroke="#000000" d="M 248 125 L 331.80078125 125" stroke-miterlimit="10"/></g><g transform="translate(2,-22) scale(1,1)"><g><path fill="none" stroke="none"/><text fill="#000000" stroke="none" font-family="Arial" font-size="13px" font-style="normal" font-weight="bold" text-decoration="none" x="265.699951171875" y="50">Usuario</text></g></g><g transform="translate(2,-22) scale(1,1)"><g><path fill="none" stroke="none"/><text fill="#000000" stroke="none" font-family="Arial" font-size="13px" font-style="normal" font-weight="normal" text-decoration="none" x="253" y="73">+Email</text></g></g><g transform="translate(2,-22) scale(1,1)"><g><path fill="none" stroke="none"/><text fill="#000000" stroke="none" font-family="Arial" font-size="13px" font-style="normal" font-weight="normal" text-decoration="none" x="253" y="88">+Contraseña</text></g></g><g transform="translate(2,-22) scale(1,1)"><g><path fill="none" stroke="none"/><text fill="#000000" stroke="none" font-family="Arial" font-size="13px" font-style="normal" font-weight="normal" text-decoration="none" x="253" y="103">+nombre</text></g></g><g transform="translate(2,-22) scale(1,1)"><g><path fill="none" stroke="none"/><text fill="#000000" stroke="none" font-family="Arial" font-size="13px" font-style="normal" font-weight="normal" text-decoration="none" x="253" y="118">+apellidos</text></g></g><g transform="translate(2,-22) scale(1,1)"><rect fill="#C0C0C0" stroke="none" x="15" y="343" width="80" height="104" opacity="0.2"/></g><g transform="translate(2,-22) scale(1,1)"><rect fill="#ffffff" stroke="none" x="8" y="336" width="80" height="104"/></g><g transform="translate(2,-22) scale(1,1)"><path fill="none" stroke="#000000" d="M 8 336 L 88 336 L 88 440 L 8 440 L 8 336 Z Z" stroke-miterlimit="10"/></g><g transform="translate(2,-22) scale(1,1)"><path fill="none" stroke="#000000" d="M 8 361 L 88 361" stroke-miterlimit="10"/></g><g transform="translate(2,-22) scale(1,1)"><path fill="none" stroke="#000000" d="M 8 399 L 88 399" stroke-miterlimit="10"/></g><g transform="translate(2,-22) scale(1,1)"><g><path fill="none" stroke="none"/><text fill="#000000" stroke="none" font-family="Arial" font-size="13px" font-style="normal" font-weight="bold" text-decoration="none" x="23.80908203125" y="354">Alumno</text></g></g><g transform="translate(2,-22) scale(1,1)"><g><path fill="none" stroke="none"/><text fill="#000000" stroke="none" font-family="Arial" font-size="13px" font-style="normal" font-weight="normal" text-decoration="none" x="13" y="377">+DNI</text></g></g><g transform="translate(2,-22) scale(1,1)"><g><path fill="none" stroke="none"/><text fill="#000000" stroke="none" font-family="Arial" font-size="13px" font-style="normal" font-weight="normal" text-decoration="none" x="13" y="392">+Matricula</text></g></g><g transform="translate(2,-22) scale(1,1)"><path fill="none" stroke="#000000" d="M 48 335 L 48 208 L 288 208 L 289 135" stroke-miterlimit="10"/></g><g transform="translate(2,-22) scale(1,1)"><path fill="#FFFFFF" stroke="none" d="M 297.1398423689502 155.43876136679137 L 289 135 L 280.30335097536243 155.20812449838604"/></g><g transform="translate(2,-22) scale(1,1)"><path fill="none" stroke="#000000" d="M 297.1398423689502 155.43876136679137 L 289 135 L 280.30335097536243 155.20812449838604 L 297.1398423689502 155.43876136679137" stroke-miterlimit="10"/></g><g transform="translate(2,-22) scale(1,1)"><rect fill="#C0C0C0" stroke="none" x="255" y="247" width="80" height="65" opacity="0.2"/></g><g transform="translate(2,-22) scale(1,1)"><rect fill="#ffffff" stroke="none" x="248" y="240" width="80" height="65"/></g><g transform="translate(2,-22) scale(1,1)"><path fill="none" stroke="#000000" d="M 248 240 L 328 240 L 328 305 L 248 305 L 248 240 Z Z" stroke-miterlimit="10"/></g><g transform="translate(2,-22) scale(1,1)"><path fill="none" stroke="#000000" d="M 248 265 L 328 265" stroke-miterlimit="10"/></g><g transform="translate(2,-22) scale(1,1)"><path fill="none" stroke="#000000" d="M 248 288 L 328 288" stroke-miterlimit="10"/></g><g transform="translate(2,-22) scale(1,1)"><g><path fill="none" stroke="none"/><text fill="#000000" stroke="none" font-family="Arial" font-size="13px" font-style="normal" font-weight="bold" text-decoration="none" x="261.27001953125" y="258">Profesor</text></g></g><g transform="translate(2,-22) scale(1,1)"><g><path fill="none" stroke="none"/><text fill="#000000" stroke="none" font-family="Arial" font-size="13px" font-style="normal" font-weight="normal" text-decoration="none" x="253" y="281">+ID</text></g></g><g transform="translate(2,-22) scale(1,1)"><rect fill="#C0C0C0" stroke="none" x="471" y="359" width="96" height="57" opacity="0.2"/></g><g transform="translate(2,-22) scale(1,1)"><rect fill="#ffffff" stroke="none" x="464" y="352" width="96" height="57"/></g><g transform="translate(2,-22) scale(1,1)"><path fill="none" stroke="#000000" d="M 464 352 L 560 352 L 560 409 L 464 409 L 464 352 Z Z" stroke-miterlimit="10"/></g><g transform="translate(2,-22) scale(1,1)"><path fill="none" stroke="#000000" d="M 464 377 L 560 377" stroke-miterlimit="10"/></g><g transform="translate(2,-22) scale(1,1)"><path fill="none" stroke="#000000" d="M 464 400 L 560 400" stroke-miterlimit="10"/></g><g transform="translate(2,-22) scale(1,1)"><g><path fill="none" stroke="none"/><text fill="#000000" stroke="none" font-family="Arial" font-size="13px" font-style="normal" font-weight="bold" text-decoration="none" x="473.003173828125" y="370">Coordinador</text></g></g><g transform="translate(2,-22) scale(1,1)"><g><path fill="none" stroke="none"/><text fill="#000000" stroke="none" font-family="Arial" font-size="13px" font-style="normal" font-weight="normal" text-decoration="none" x="469" y="393">+ID</text></g></g><g transform="translate(2,-22) scale(1,1)"><path fill="none" stroke="#000000" d="M 512 351 L 512 208 L 288 208 L 289 135" stroke-miterlimit="10"/></g><g transform="translate(2,-22) scale(1,1)"><path fill="#FFFFFF" stroke="none" d="M 297.1398423689502 155.43876136679137 L 289 135 L 280.30335097536243 155.20812449838604"/></g><g transform="translate(2,-22) scale(1,1)"><path fill="none" stroke="#000000" d="M 297.1398423689502 155.43876136679137 L 289 135 L 280.30335097536243 155.20812449838604 L 297.1398423689502 155.43876136679137" stroke-miterlimit="10"/></g><g transform="translate(2,-22) scale(1,1)"><path fill="none" stroke="#000000" d="M 288 239 L 289 135" stroke-miterlimit="10"/></g><g transform="translate(2,-22) scale(1,1)"><path fill="#FFFFFF" stroke="none" d="M 297.22321932443793 155.40535870653076 L 289 135 L 280.38592663356246 155.24346166142618"/></g><g transform="translate(2,-22) scale(1,1)"><path fill="none" stroke="#000000" d="M 297.22321932443793 155.40535870653076 L 289 135 L 280.38592663356246 155.24346166142618 L 297.22321932443793 155.40535870653076" stroke-miterlimit="10"/></g><g transform="translate(2,-22) scale(1,1)"><path fill="none" stroke="#000000" d="M 463 410 L 280 520 L 89 411" stroke-miterlimit="10"/></g><g transform="translate(2,-22) scale(1,1)"><g><path fill="none" stroke="none"/><text fill="#000000" stroke="none" font-family="Arial" font-size="13px" font-style="normal" font-weight="normal" text-decoration="none" x="257.5" y="538">+alta</text></g></g><g transform="translate(2,-22) scale(1,1)"><path fill="none" stroke="#000000" d="M 247 292 L 89 368" stroke-miterlimit="10"/></g><g transform="translate(2,-22) scale(1,1)"><g><path fill="none" stroke="none"/><text fill="#000000" stroke="none" font-family="Arial" font-size="13px" font-style="normal" font-weight="normal" text-decoration="none" x="129.5" y="303">+matricula</text></g></g><g transform="translate(2,-22) scale(1,1)"><rect fill="#C0C0C0" stroke="none" x="383" y="551" width="80" height="104" opacity="0.2"/></g><g transform="translate(2,-22) scale(1,1)"><rect fill="#ffffff" stroke="none" x="376" y="544" width="80" height="104"/></g><g transform="translate(2,-22) scale(1,1)"><path fill="none" stroke="#000000" d="M 376 544 L 456 544 L 456 648 L 376 648 L 376 544 Z Z" stroke-miterlimit="10"/></g><g transform="translate(2,-22) scale(1,1)"><path fill="none" stroke="#000000" d="M 376 569 L 456 569" stroke-miterlimit="10"/></g><g transform="translate(2,-22) scale(1,1)"><path fill="none" stroke="#000000" d="M 376 637 L 456 637" stroke-miterlimit="10"/></g><g transform="translate(2,-22) scale(1,1)"><g><path fill="none" stroke="none"/><text fill="#000000" stroke="none" font-family="Arial" font-size="13px" font-style="normal" font-weight="bold" text-decoration="none" x="396.503173828125" y="562">Grupo</text></g></g><g transform="translate(2,-22) scale(1,1)"><g><path fill="none" stroke="none"/><text fill="#000000" stroke="none" font-family="Arial" font-size="13px" font-style="normal" font-weight="normal" text-decoration="none" x="381" y="585">+ID</text></g></g><g transform="translate(2,-22) scale(1,1)"><g><path fill="none" stroke="none"/><text fill="#000000" stroke="none" font-family="Arial" font-size="13px" font-style="normal" font-weight="normal" text-decoration="none" x="381" y="600">+Nombre</text></g></g><g transform="translate(2,-22) scale(1,1)"><g><path fill="none" stroke="none"/><text fill="#000000" stroke="none" font-family="Arial" font-size="13px" font-style="normal" font-weight="normal" text-decoration="none" x="381" y="615">+Tipo</text></g></g><g transform="translate(2,-22) scale(1,1)"><g><path fill="none" stroke="none"/><text fill="#000000" stroke="none" font-family="Arial" font-size="13px" font-style="normal" font-weight="normal" text-decoration="none" x="381" y="630">+Turno</text></g></g><g transform="translate(2,-22) scale(1,1)"><path fill="none" stroke="#000000" d="M 474 410 L 416 456 L 416 543" stroke-miterlimit="10"/></g><g transform="translate(2,-22) scale(1,1)"><g><path fill="none" stroke="none"/><text fill="#000000" stroke="none" font-family="Arial" font-size="13px" font-style="normal" font-weight="normal" text-decoration="none" x="422.5" y="465">+crea</text></g></g><g transform="translate(2,-22) scale(1,1)"><rect fill="#C0C0C0" stroke="none" x="567" y="479" width="80.2353515625" height="64" opacity="0.2"/></g><g transform="translate(2,-22) scale(1,1)"><rect fill="#ffffff" stroke="none" x="560" y="472" width="80.2353515625" height="64"/></g><g transform="translate(2,-22) scale(1,1)"><path fill="none" stroke="#000000" d="M 560 472 L 640.2353515625 472 L 640.2353515625 536 L 560 536 L 560 472 Z Z" stroke-miterlimit="10"/></g><g transform="translate(2,-22) scale(1,1)"><path fill="none" stroke="#000000" d="M 560 497 L 640.2353515625 497" stroke-miterlimit="10"/></g><g transform="translate(2,-22) scale(1,1)"><path fill="none" stroke="#000000" d="M 560 520 L 640.2353515625 520" stroke-miterlimit="10"/></g><g transform="translate(2,-22) scale(1,1)"><g><path fill="none" stroke="none"/><text fill="#000000" stroke="none" font-family="Arial" font-size="13px" font-style="normal" font-weight="bold" text-decoration="none" x="582.417236328125" y="488.5">curso</text></g></g><g transform="translate(2,-22) scale(1,1)"><g><path fill="none" stroke="none"/><text fill="#000000" stroke="none" font-family="Arial" font-size="13px" font-style="normal" font-weight="normal" text-decoration="none" x="565" y="513">+Año</text></g></g><g transform="translate(2,-22) scale(1,1)"><path fill="none" stroke="#000000" d="M 561 409 L 600 432 L 600 471" stroke-miterlimit="10"/></g><g transform="translate(2,-22) scale(1,1)"><g><path fill="none" stroke="none"/><text fill="#000000" stroke="none" font-family="Arial" font-size="13px" font-style="normal" font-weight="normal" text-decoration="none" x="596.5" y="426">+crea</text></g></g><g transform="translate(2,-22) scale(1,1)"><path fill="none" stroke="#000000" d="M 585 537 L 560 592 L 457 595" stroke-miterlimit="10"/></g><g transform="translate(2,-22) scale(1,1)"><path fill="#FFFFFF" stroke="none" d="M 467.0358115750532 590.4963918876051 L 457 595 L 467.2809222555117 598.9118585833494 L 478.99067423362004 594.3594949252343"/></g><g transform="translate(2,-22) scale(1,1)"><path fill="none" stroke="#000000" d="M 467.0358115750532 590.4963918876051 L 457 595 L 467.2809222555117 598.9118585833494 L 478.99067423362004 594.3594949252343 L 467.0358115750532 590.4963918876051" stroke-miterlimit="10"/></g><g transform="translate(2,-22) scale(1,1)"><g><path fill="none" stroke="none"/><text fill="#000000" stroke="none" font-family="Arial" font-size="13px" font-style="normal" font-weight="normal" text-decoration="none" x="540.5" y="611">+Tiene</text></g></g><g transform="translate(2,-22) scale(1,1)"><path fill="none" stroke="#000000" d="M 83 441 L 184 592 L 375 595" stroke-miterlimit="10"/></g><g transform="translate(2,-22) scale(1,1)"><path fill="#FFFFFF" stroke="none" d="M 364.77246856988666 599.049395121008 L 375 595 L 364.9046884211998 590.6313979207368 L 353.0027132393852 594.6544928781055"/></g><g transform="translate(2,-22) scale(1,1)"><path fill="none" stroke="#000000" d="M 364.77246856988666 599.049395121008 L 375 595 L 364.9046884211998 590.6313979207368 L 353.0027132393852 594.6544928781055 L 364.77246856988666 599.049395121008" stroke-miterlimit="10"/></g><g transform="translate(2,-22) scale(1,1)"><g><path fill="none" stroke="none"/><text fill="#000000" stroke="none" font-family="Arial" font-size="13px" font-style="normal" font-weight="normal" text-decoration="none" x="151.5" y="615">+tiene</text></g></g><g transform="translate(2,-22) scale(1,1)"><rect fill="#C0C0C0" stroke="none" x="255" y="343" width="77.63720703125" height="117" opacity="0.2"/></g><g transform="translate(2,-22) scale(1,1)"><rect fill="#ffffff" stroke="none" x="248" y="336" width="77.63720703125" height="117"/></g><g transform="translate(2,-22) scale(1,1)"><path fill="none" stroke="#000000" d="M 248 336 L 325.63720703125 336 L 325.63720703125 453 L 248 453 L 248 336 Z Z" stroke-miterlimit="10"/></g><g transform="translate(2,-22) scale(1,1)"><path fill="none" stroke="#000000" d="M 248 361 L 325.63720703125 361" stroke-miterlimit="10"/></g><g transform="translate(2,-22) scale(1,1)"><path fill="none" stroke="#000000" d="M 248 444 L 325.63720703125 444" stroke-miterlimit="10"/></g><g transform="translate(2,-22) scale(1,1)"><g><path fill="none" stroke="none"/><text fill="#000000" stroke="none" font-family="Arial" font-size="13px" font-style="normal" font-weight="bold" text-decoration="none" x="252.5" y="354">Evaluación</text></g></g><g transform="translate(2,-22) scale(1,1)"><g><path fill="none" stroke="none"/><text fill="#000000" stroke="none" font-family="Arial" font-size="13px" font-style="normal" font-weight="normal" text-decoration="none" x="253" y="377">+NotaT</text></g></g><g transform="translate(2,-22) scale(1,1)"><g><path fill="none" stroke="none"/><text fill="#000000" stroke="none" font-family="Arial" font-size="13px" font-style="normal" font-weight="normal" text-decoration="none" x="253" y="392">+NotaP</text></g></g><g transform="translate(2,-22) scale(1,1)"><g><path fill="none" stroke="none"/><text fill="#000000" stroke="none" font-family="Arial" font-size="13px" font-style="normal" font-weight="normal" text-decoration="none" x="253" y="407">+TipoC</text></g></g><g transform="translate(2,-22) scale(1,1)"><g><path fill="none" stroke="none"/><text fill="#000000" stroke="none" font-family="Arial" font-size="13px" font-style="normal" font-weight="normal" text-decoration="none" x="253" y="422">+TipoE</text></g></g><g transform="translate(2,-22) scale(1,1)"><g><path fill="none" stroke="none"/><text fill="#000000" stroke="none" font-family="Arial" font-size="13px" font-style="normal" font-weight="normal" text-decoration="none" x="253" y="437">+ID</text></g></g><g transform="translate(2,-22) scale(1,1)"><path fill="none" stroke="#000000" d="M 89 389 L 247 393" stroke-miterlimit="10"/></g><g transform="translate(2,-22) scale(1,1)"><path fill="#FFFFFF" stroke="none" d="M 236.73404438880792 396.9509689177509 L 247 393 L 236.94711625796705 388.5346300859649 L 225.00704676507507 392.4432163737994"/></g><g transform="translate(2,-22) scale(1,1)"><path fill="none" stroke="#000000" d="M 236.73404438880792 396.9509689177509 L 247 393 L 236.94711625796705 388.5346300859649 L 225.00704676507507 392.4432163737994 L 236.73404438880792 396.9509689177509" stroke-miterlimit="10"/></g><g transform="translate(2,-22) scale(1,1)"><g><path fill="none" stroke="none"/><text fill="#000000" stroke="none" font-family="Arial" font-size="13px" font-style="normal" font-weight="normal" text-decoration="none" x="150.5" y="381">+tiene</text></g></g><g transform="translate(2,-22) scale(1,1)"><path fill="none" stroke="#000000" d="M 287 306 L 287 335" stroke-miterlimit="10"/></g><g transform="translate(2,-22) scale(1,1)"><g><path fill="none" stroke="none"/><text fill="#000000" stroke="none" font-family="Arial" font-size="13px" font-style="normal" font-weight="normal" text-decoration="none" x="294.5" y="323">+crea</text></g></g><g transform="translate(2,-22) scale(1,1)"><path fill="none" stroke="#000000" d="M 463 356 L 329 292" stroke-miterlimit="10"/></g><g transform="translate(2,-22) scale(1,1)"><g><path fill="none" stroke="none"/><text fill="#000000" stroke="none" font-family="Arial" font-size="13px" font-style="normal" font-weight="normal" text-decoration="none" x="374.5" y="342">+alta</text></g></g><g transform="translate(2,-22) scale(1,1)"><rect fill="#ffffff" stroke="none" x="328" y="168" width="96" height="24"/></g><g transform="translate(2,-22) scale(1,1)"><path fill="none" stroke="#ffffff" d="M 328 168 L 424 168 L 424 192 L 328 192 L 328 168 Z Z" stroke-miterlimit="10"/></g><g transform="translate(2,-22) scale(1,1)"><g><path fill="none" stroke="none"/><text fill="#000000" stroke="none" font-family="Arial" font-size="13px" font-style="normal" font-weight="normal" text-decoration="none" x="333" y="183">{total, disjunta}</text></g></g></g></svg>